I uploaded this file because it\'s not as big as the other quadrilogy on here.  I realize that some of us watch movies on laptops and this is exactly what it\'s for A / V wise.  If you like it on your TV it\'ll work just as fine especially the fourth.  Hope you enjoy.  If not, I didn\'t make the movies so don\'t flame me...

Wrong Turn 2003, http://www.imdb.com/title/tt0295700
Chris Flynn is driving his car for a job interview in another city. However, an accident with a trunk transporting chemical products blocks the highway and Chris looks for an alternative route through the mountains of West Virginia to accomplish his schedule. Due to a lack of attention, he crashes another car parked in the middle of the road with flat tires. Chris meets a group of five friends, who intended to camp in the forest, and they decide to leave the couple Francine and Evan on the place, while Chris, Jessie, Carly and her fiancé Scott tries to find some help. They find a weird cabin in the middle of nowhere, where three violent cannibalistic mountain men with the appearance of monsters live. The two couples try to escape from the mountain men while chased by them. 

Wrong Turn 2, Dead End 2007, http://www.imdb.com/title/tt0804555
Retired military commander Colonel Dale Murphy hosts the simulated post-apocalyptic reality show where participants are challenged to survive a remote West Virginia wasteland. But the show turns into a nightmarish showdown when each realizes they are being hunted by an inbred family of cannibals determined to make them all dinner!

Wrong Turn 3, Left for Dead 2009, http://www.imdb.com/title/tt1261978
While rafting in the Bluefish River area, four college kids are attacked by the mutant cannibal hillbilly Three Finger. Only the teenager Alex succeeds in escaping running through the woods. Meanwhile, a group of dangerous criminals are transported from the West Virginia Grafton Penitentiary in a custody bus escorted by three security guards through the backwoods. When they park in a rest stop in a police station, Sheriff Carver is informed about the missing teenagers. The bus driver heads to their destination with the guards and the prisoners but a tow truck driven by Three Finger hits the bus that falls off the road. They are attacked by Three Finger and the perilous Carlo Chavez dominates the guards and the other prisoners. When they accidentally meet Alex, the girl tells how sick and threatening Three Finger is; sooner the survivals discover that Alex is telling the truth. 

SummaryWrong Turn 4 Bloody Beginnings 2011, 
http://www.imdb.com/title/tt1865567/
Follows a group of friends that decide to go snowmobiling during their winter break.
They make a \"wrong turn\", getting lost in a storm.

General:

Complete name                    : \\\\Wrong Turn Trilogy\\\\Wrong Turn.avi
Format                           : AVI
Format/Info                      : Audio Video Interleave
File size                        : 1.23 GiB
Duration                         : 1h 20mn
Overall bit rate                 : 2 174 Kbps

Video:

Format                           : MPEG-4 Visual
Format profile                   : Simple@L3
Format settings, BVOP            : No
Format settings, QPel            : No
Format settings, GMC             : No warppoints
Format settings, Matrix          : Default (H.263)
Codec ID                         : XVID
Codec ID/Hint                    : XviD
Duration                         : 1h 20mn
Bit rate                         : 1 715 Kbps
Width                            : 652 pixels
Height                           : 352 pixels
Display aspect ratio             : 1.852
Frame rate                       : 25.000 fps
Color space                      : YUV
Chroma subsampling               : 4:2:0
Bit depth                        : 8 bits
Scan type                        : Progressive
Bits/(Pixel*Frame)               : 0.299
Stream size                      : 990 MiB (79%)
Writing library                  : XviD 1.1.2 (UTC 2006-11-01)

Audio:

Format                           : AC-3
Format/Info                      : Audio Coding 3
Mode extension                   : CM (complete main)
Codec ID                         : 2000
Duration                         : 1h 20mn
Bit rate mode                    : Constant
Bit rate                         : 448 Kbps
Channel(s)                       : 6 channels
Channel positions                : Front: L C R, Side: L R, LFE
Sampling rate                    : 48.0 KHz
Bit depth                        : 16 bits
Stream size                      : 259 MiB (21%)
Alignment                        : Aligned on interleaves
Interleave, duration             : 32 ms (0.80 video frame)
Interleave, preload duration     : 160 ms

--------------------------------------------------------

Wrong Turn 4 Bloody Beginnings 2011 DVDRip XviD AC3-YeFsTe
DVDRip XviD AC3-YeFsTe | English | 1hr 16mn | avi | 720 x 400 | XviD @ 1638 Kbps
AC3 @ 448 Kbps | 1.36 GB
Genre(s): Action | Horror | Thriller
